<svg width="54" height="51" viewBox="0 0 54 51" fill="none" xmlns="http://www.w3.org/2000/svg">
<rect x="0.695312" y="0.923828" width="52.4483" height="49" rx="7.5" stroke="#312D70"/>
<path fill-rule="evenodd" clip-rule="evenodd" d="M27.1355 21.5741C24.4684 21.5741 22.2863 19.4017 22.2863 16.7465C22.2863 14.0914 24.4684 11.9189 27.1355 11.9189C29.8025 11.9189 31.9846 14.0914 31.9846 16.7465C31.9846 19.4017 29.8025 21.5741 27.1355 21.5741ZM36.8336 29.9013C36.8336 28.8151 36.3487 27.8496 35.6213 27.1255C33.0755 25.0737 30.166 23.9875 27.1353 23.9875C24.1046 23.9875 21.1951 25.0737 18.6493 27.1255C17.8007 27.7289 17.437 28.8151 17.437 29.9013V36.0565H36.8336V29.9013ZM34.4091 29.9016V33.643H19.8617V29.9016C19.8617 29.5395 19.9829 29.1775 20.2253 29.0568C24.3471 25.6775 29.9236 25.6775 34.0454 29.0568C34.2878 29.2982 34.4091 29.5395 34.4091 29.9016ZM24.711 16.7468C24.711 15.4192 25.802 14.333 27.1355 14.333C28.469 14.333 29.5601 15.4192 29.5601 16.7468C29.5601 18.0744 28.469 19.1606 27.1355 19.1606C25.802 19.1606 24.711 18.0744 24.711 16.7468Z" fill="#312D70"/>
</svg>
