<svg width="54" height="51" viewBox="0 0 54 51" fill="none" xmlns="http://www.w3.org/2000/svg">
<rect x="0.788086" y="0.923828" width="52.4483" height="49" rx="7.5" stroke="#EBE4FE"/>
<path fill-rule="evenodd" clip-rule="evenodd" d="M27.2282 21.5741C24.5612 21.5741 22.3791 19.4017 22.3791 16.7465C22.3791 14.0914 24.5612 11.9189 27.2282 11.9189C29.8952 11.9189 32.0774 14.0914 32.0774 16.7465C32.0774 19.4017 29.8952 21.5741 27.2282 21.5741ZM36.9263 29.9013C36.9263 28.8151 36.4414 27.8496 35.7141 27.1255C33.1683 25.0737 30.2588 23.9875 27.2281 23.9875C24.1974 23.9875 21.2879 25.0737 18.7421 27.1255C17.8935 27.7289 17.5298 28.8151 17.5298 29.9013V36.0565H36.9263V29.9013ZM34.5018 29.9016V33.643H19.9544V29.9016C19.9544 29.5395 20.0757 29.1775 20.3181 29.0568C24.4399 25.6775 30.0164 25.6775 34.1382 29.0568C34.3806 29.2982 34.5018 29.5395 34.5018 29.9016ZM24.8037 16.7468C24.8037 15.4192 25.8948 14.333 27.2283 14.333C28.5618 14.333 29.6529 15.4192 29.6529 16.7468C29.6529 18.0744 28.5618 19.1606 27.2283 19.1606C25.8948 19.1606 24.8037 18.0744 24.8037 16.7468Z" fill="white"/>
</svg>
