<svg width="34" height="33" viewBox="0 0 34 33" fill="none" xmlns="http://www.w3.org/2000/svg">
<path fill-rule="evenodd" clip-rule="evenodd" d="M22.1902 0.121094H12.1127C2.91147 0.121094 0.720703 2.31186 0.720703 11.5131V21.5906C0.720703 30.7919 2.91147 32.9826 12.1127 32.9826H22.1902C31.3915 32.9826 33.5822 30.7919 33.5822 21.5906V11.5131C33.5822 2.31186 31.3915 0.121094 22.1902 0.121094ZM27.9095 12.1707C28.6706 12.1707 28.8305 12.5163 28.6706 12.9866C28.3506 14.2799 25.2846 18.0894 25.2846 18.0894C25.018 18.4656 24.9113 18.6537 25.2846 19.077C25.416 19.2393 25.6965 19.4816 26.0174 19.7589C26.3474 20.044 26.7202 20.366 27.0176 20.676C28.0986 21.7486 28.9132 22.6535 29.1402 23.2771C29.3476 23.9029 28.9881 24.22 28.2691 24.22H25.7525C25.0784 24.22 24.739 23.887 24.0056 23.1674C23.6947 22.8623 23.3131 22.4879 22.8051 22.0399C21.3121 20.7701 20.6722 20.6055 20.299 20.6055C19.7924 20.6055 19.6409 20.732 19.6409 21.3662V23.3567C19.6409 23.9029 19.443 24.22 17.8434 24.22C15.1773 24.22 12.2473 22.7923 10.1678 20.1587C7.04851 16.3022 6.19535 13.3864 6.19535 12.7985C6.19535 12.4693 6.33916 12.1707 7.05817 12.1707H9.57472C10.2179 12.1707 10.4598 12.419 10.701 13.0336C11.9318 16.1959 14.007 18.9595 14.8601 18.9595C15.1801 18.9595 15.3268 18.8295 15.3268 18.1129V14.8443C15.2691 13.9139 14.9006 13.5115 14.6276 13.2135C14.4591 13.0294 14.327 12.8852 14.327 12.6809C14.327 12.4327 14.5674 12.1707 14.9673 12.1707H18.9219C19.4552 12.1707 19.6409 12.4223 19.6409 12.9866V17.3839C19.6409 17.8542 19.8724 18.0188 20.0324 18.0188C20.3523 18.0188 20.6189 17.8542 21.2055 17.3369C23.0184 15.5497 24.2981 12.7985 24.2981 12.7985C24.4581 12.4693 24.7531 12.1707 25.393 12.1707H27.9095Z" fill="white"/>
</svg>
