<svg width="33" height="33" viewBox="0 0 33 33" fill="none" xmlns="http://www.w3.org/2000/svg">
<path fill-rule="evenodd" clip-rule="evenodd" d="M7.64765 0.159888C8.03136 0.128057 10.0054 0.121094 16.7551 0.121094H22.0172C25.8094 0.127683 26.0252 0.158936 26.7456 0.263261L26.7873 0.269307C28.3461 0.494115 29.6541 1.11582 30.7237 2.1374C31.323 2.71409 31.7358 3.27809 32.1076 4.03334C32.5607 4.95594 32.7833 5.82881 32.8852 7.12692C32.9071 7.40544 32.9171 11.8379 32.9171 16.2734C32.9171 20.7081 32.9079 25.1488 32.886 25.4273C32.7853 26.7048 32.5627 27.5851 32.1238 28.4903C31.2509 30.2908 29.6469 31.6038 27.7097 32.1037C27.0072 32.2852 26.3718 32.3705 25.2776 32.422C24.8872 32.4419 20.8038 32.4468 16.7205 32.4468C12.6372 32.4468 8.55632 32.4344 8.15595 32.417C7.21096 32.3722 6.47487 32.2777 5.8084 32.1061C3.88362 31.6088 2.24978 30.2759 1.39432 28.5003C0.946698 27.5727 0.73532 26.7247 0.623414 25.3768C0.591085 24.9939 0.583625 23.0218 0.583625 16.2776C0.583625 15.4513 0.583296 14.7015 0.582997 14.0198C0.582474 12.8271 0.582042 11.8433 0.583625 11.0242C0.589982 7.2278 0.620856 7.0148 0.725876 6.29029C0.727676 6.27787 0.729497 6.2653 0.731341 6.25256C0.956397 4.69532 1.5781 3.38527 2.60391 2.32042C3.16717 1.73652 3.73789 1.31998 4.46155 0.960639C5.40057 0.49312 6.2625 0.275027 7.64765 0.159888ZM12.5729 4.5722C13.7997 4.51637 14.1917 4.50271 17.3154 4.50271H17.3118C20.4364 4.50271 20.827 4.51637 22.0538 4.5722C23.2783 4.62827 24.1145 4.82212 24.8478 5.10654C25.605 5.40007 26.2447 5.79304 26.8845 6.43282C27.5243 7.07211 27.9173 7.7138 28.212 8.47026C28.4948 9.20157 28.6888 10.0373 28.7464 11.2618C28.8015 12.4886 28.8158 12.8806 28.8158 16.0042C28.8158 19.1279 28.8015 19.5189 28.7464 20.7458C28.6888 21.9697 28.4948 22.8057 28.212 23.5373C27.9173 24.2935 27.5243 24.9352 26.8845 25.5745C26.2455 26.2143 25.6047 26.6082 24.8485 26.902C24.1167 27.1864 23.28 27.3802 22.0555 27.4363C20.8287 27.4921 20.4378 27.5058 17.314 27.5058C14.1905 27.5058 13.7988 27.4921 12.5719 27.4363C11.3477 27.3802 10.5117 27.1864 9.77989 26.902C9.02389 26.6082 8.3822 26.2143 7.74314 25.5745C7.1036 24.9352 6.71062 24.2935 6.41661 23.537C6.13243 22.8057 5.93857 21.97 5.88226 20.7455C5.82667 19.5187 5.81278 19.1279 5.81278 16.0042C5.81278 12.8806 5.82715 12.4884 5.88202 11.2615C5.93714 10.0376 6.13123 9.20157 6.41637 8.47003C6.7111 7.7138 7.10408 7.07211 7.74385 6.43282C8.38316 5.79328 9.02485 5.40031 9.78133 5.10654C10.5126 4.82212 11.3484 4.62827 12.5729 4.5722ZM16.931 6.57502H16.9309H16.9309H16.9308H16.9308C16.6983 6.57491 16.4828 6.57482 16.2825 6.57513V6.57226C14.1389 6.57465 13.7277 6.58903 12.6667 6.63695C11.5453 6.68847 10.9364 6.87537 10.531 7.03351C9.99425 7.24246 9.61086 7.49166 9.2083 7.89421C8.80575 8.29677 8.55606 8.68015 8.3476 9.21689C8.19017 9.62232 8.00279 10.2309 7.95151 11.3523C7.8964 12.5648 7.88537 12.9271 7.88537 15.9985C7.88537 19.0699 7.8964 19.4341 7.95151 20.6465C8.00255 21.7679 8.19017 22.3766 8.3476 22.7815C8.55654 23.3185 8.80575 23.7009 9.2083 24.1035C9.61086 24.506 9.99425 24.7552 10.531 24.9637C10.9367 25.1211 11.5453 25.3085 12.6667 25.3603C13.8792 25.4154 14.2432 25.4273 17.3143 25.4273C20.3853 25.4273 20.7495 25.4154 21.962 25.3603C23.0834 25.309 23.6925 25.1221 24.0974 24.9639C24.6344 24.7555 25.0166 24.5063 25.4192 24.1037C25.8217 23.7014 26.0714 23.3192 26.2799 22.7825C26.4373 22.3775 26.6247 21.7689 26.676 20.6475C26.7311 19.435 26.7431 19.0708 26.7431 16.0014C26.7431 12.9319 26.7311 12.5677 26.676 11.3552C26.6249 10.2338 26.4373 9.62519 26.2799 9.22024C26.0709 8.68351 25.8217 8.30012 25.4192 7.89757C25.0168 7.49501 24.6342 7.24581 24.0974 7.03735C23.692 6.87992 23.0834 6.69254 21.962 6.64126C20.7493 6.58615 20.3853 6.57513 17.3143 6.57513L16.931 6.57502ZM23.4545 8.48516C22.6925 8.48516 22.0743 9.10265 22.0743 9.86486C22.0743 10.6268 22.6925 11.245 23.4545 11.245C24.2165 11.245 24.8347 10.6268 24.8347 9.86486C24.8347 9.10289 24.2165 8.48468 23.4545 8.48468V8.48516ZM11.4093 16.0035C11.4093 12.7417 14.0538 10.0971 17.3156 10.097C20.5776 10.097 23.2215 12.7416 23.2215 16.0035C23.2215 19.2654 20.5778 21.9088 17.3159 21.9088C14.054 21.9088 11.4093 19.2654 11.4093 16.0035ZM17.316 12.1705C19.4333 12.1705 21.1499 13.8869 21.1499 16.0044C21.1499 18.1216 19.4333 19.8382 17.316 19.8382C15.1985 19.8382 13.4821 18.1216 13.4821 16.0044C13.4821 13.8869 15.1985 12.1705 17.316 12.1705Z" fill="white"/>
</svg>
